<svg width="17" height="16" viewBox="0 0 17 16" fill="none" xmlns="http://www.w3.org/2000/svg">
<g clip-path="url(#clip0_201_2150)">
<path d="M5.03799 9.309C5.00008 9.40034 4.9901 9.50087 5.00932 9.59788C5.02855 9.69489 5.07611 9.78402 5.14599 9.854L8.14599 12.854C8.23975 12.9477 8.36691 13.0004 8.49949 13.0004C8.63207 13.0004 8.75923 12.9477 8.85299 12.854L11.853 9.854C11.923 9.78413 11.9708 9.69505 11.9902 9.59804C12.0096 9.50102 11.9998 9.40043 11.962 9.309C11.9242 9.21757 11.8601 9.1394 11.7779 9.0844C11.6956 9.02939 11.5989 9.00002 11.5 9H9.49999V1C9.49999 0.734784 9.39463 0.48043 9.2071 0.292893C9.01956 0.105357 8.76521 0 8.49999 0C8.23477 0 7.98042 0.105357 7.79288 0.292893C7.60535 0.48043 7.49999 0.734784 7.49999 1V9H5.49999C5.40105 9.00002 5.30434 9.02939 5.2221 9.08439C5.13986 9.1394 5.07579 9.21756 5.03799 9.309Z" fill="#07162D"/>
<path d="M16.494 14.89L15.494 5.89C15.4669 5.64531 15.3505 5.41921 15.1671 5.25499C14.9837 5.09078 14.7462 4.99998 14.5 5H11.5V7H13.6L14.379 14H2.61701L3.40001 7H5.50001V5H2.50001C2.25383 4.99998 2.01629 5.09078 1.83288 5.25499C1.64947 5.41921 1.53309 5.64531 1.50601 5.89L0.506007 14.89C0.490541 15.0298 0.50472 15.1712 0.54762 15.3051C0.590521 15.439 0.661178 15.5624 0.754979 15.6671C0.84878 15.7719 0.963616 15.8556 1.09199 15.913C1.22037 15.9704 1.3594 16 1.50001 16H15.5C15.7652 16 16.0196 15.8946 16.2071 15.7071C16.3947 15.5196 16.5 15.2652 16.5 15C16.5 14.9633 16.498 14.9265 16.494 14.89Z" fill="#07162D"/>
</g>
<defs>
<clipPath id="clip0_201_2150">
<rect width="16" height="16" fill="white" transform="translate(0.5)"/>
</clipPath>
</defs>
</svg>
