<svg width="190" height="60" viewBox="0 0 190 60" fill="none" xmlns="http://www.w3.org/2000/svg">
<path fill-rule="evenodd" clip-rule="evenodd" d="M27.1033 -2.16571e-05H32.0312V5.91309H36.9594V10.841H32.0312V17.248H32.0314C32.0314 24.2582 37.193 29.5677 43.1191 29.5677C48.587 29.5677 53.404 25.0476 54.1163 18.8421C53.0332 19.9583 51.8018 20.9029 50.4491 21.633L48.1084 17.2965C51.5745 15.4256 54.2066 11.1408 54.2066 5.91309H54.207H59.1345H59.1349V56.6703H59.1345V59.1347H0V56.6704V54.2068V46.8146V41.8867V5.91323H0.000239373L0.000239372 5.91309H4.92812C4.92812 11.1408 7.56022 15.4256 11.0264 17.2965L8.68562 21.633C7.33301 20.9029 6.10157 19.9583 5.01848 18.8421C5.73073 25.0476 10.5477 29.5677 16.0156 29.5677C21.9343 29.5677 27.0903 24.2717 27.1033 17.2747V10.841H22.1758V5.91309H27.1033V-2.16571e-05ZM29.5674 26.4356C26.7642 31.2339 21.8156 34.4956 16.0156 34.4956C11.6552 34.4956 7.77604 32.6521 4.92788 29.6981V41.8867H54.207V29.6979C51.3589 32.652 47.4796 34.4956 43.1191 34.4956C37.3191 34.4956 32.3706 31.2339 29.5674 26.4356ZM4.92788 46.8146V54.2068H54.207V46.8146H4.92788Z" fill="#B8945C"/>
<path d="M115.525 12.9346L116.145 22.0097H114.172C112.65 16.7676 111.297 15.3584 107.52 15.3584H102.391V44.6691C102.391 47.3747 103.688 48.3329 107.351 48.7275V50.5876H90.7795V48.7275C94.4997 48.3329 95.7962 47.3747 95.7962 44.6691V15.3584H90.6668C86.8902 15.3584 85.5374 16.7676 83.9592 22.0097H81.9863L82.6064 12.9346H115.525Z" fill="white"/>
<path d="M116.983 12.9346H134.006V14.7947C129.835 15.0202 128.764 16.2039 128.764 19.0222V31.4229L143.25 18.1767C145.28 16.3166 145.054 14.8511 140.601 14.7947V12.9346H153.791V14.7947C150.24 14.9638 149.451 15.753 147.647 17.444L137.332 26.9136L150.973 46.191C152.325 48.1075 153.847 48.6148 156.102 48.7275V50.5876H145.9L132.428 31.3666L128.764 34.7486V44.6691C128.764 47.3183 130.173 48.3329 134.006 48.7275V50.5876H116.983V48.7275C120.816 48.3329 122.226 47.3183 122.226 44.6691V19.0222C122.226 15.9784 120.816 15.0202 116.983 14.7947V12.9346Z" fill="white"/>
<path d="M176.19 46.3037C181.77 46.3037 186.223 42.9217 188.309 37.7924L190 38.4688C187.689 45.4019 182.39 51.3767 174.104 51.3767C163.338 51.3767 155.503 43.4854 155.334 32.5503C155.165 20.9387 162.38 12.1455 174.048 12.1455C181.77 12.1455 187.238 16.1475 188.422 20.3187L181.827 23.3625C180.699 18.2331 177.825 14.7947 173.315 14.7947C166.551 14.7947 162.324 20.4878 162.38 29.8447C162.437 39.427 168.186 46.3037 176.19 46.3037Z" fill="white"/>
</svg>
