<svg width="22" height="32" viewBox="0 0 22 32" fill="none" xmlns="http://www.w3.org/2000/svg">
<g id="Group 10122872">
<path id="Union" d="M8.12524 1.76172V0.761719H7.12524V1.76172H8.12524ZM13.8752 1.76172H14.8752V0.761719H13.8752V1.76172ZM8.12524 8.05929V9.05929H9.12524V8.05929H8.12524ZM1.55371 8.05929V7.05929H0.553711V8.05929H1.55371ZM1.55371 13.8093H0.553711V14.8093H1.55371V13.8093ZM8.12524 13.8093H9.12524V12.8093H8.12524V13.8093ZM8.12524 30.2379H7.12524V31.2379H8.12524V30.2379ZM13.8752 30.2379V31.2379H14.8752V30.2379H13.8752ZM13.8752 13.8093V12.8093H12.8752V13.8093H13.8752ZM20.4466 13.8093V14.8093H21.4466V13.8093H20.4466ZM20.4466 8.05929H21.4466V7.05929H20.4466V8.05929ZM13.8752 8.05929H12.8752V9.05929H13.8752V8.05929ZM8.12524 2.76172H13.8752V0.761719H8.12524V2.76172ZM9.12524 8.05929V1.76172H7.12524V8.05929H9.12524ZM1.55371 9.05929H8.12524V7.05929H1.55371V9.05929ZM2.55371 13.8093V8.05929H0.553711V13.8093H2.55371ZM8.12524 12.8093H1.55371V14.8093H8.12524V12.8093ZM9.12524 30.2379V13.8093H7.12524V30.2379H9.12524ZM13.8752 29.2379H8.12524V31.2379H13.8752V29.2379ZM12.8752 13.8093V30.2379H14.8752V13.8093H12.8752ZM20.4466 12.8093H13.8752V14.8093H20.4466V12.8093ZM19.4466 8.05929V13.8093H21.4466V8.05929H19.4466ZM13.8752 9.05929H20.4466V7.05929H13.8752V9.05929ZM12.8752 1.76172V8.05929H14.8752V1.76172H12.8752Z" fill="#B8945C"/>
</g>
</svg>
