<svg width="36" height="29" viewBox="0 0 36 29" fill="none" xmlns="http://www.w3.org/2000/svg">
<g id="Group 10122871">
<path id="Vector" d="M17.9996 2C17.9996 2 10.8496 7.60097 10.8496 15.0867C10.8496 22.5725 17.9996 26.2667 17.9996 26.2667C17.9996 26.2667 25.1496 22.5725 25.1496 15.0867C25.1496 7.60097 17.9996 2 17.9996 2Z" stroke="#B8945C" stroke-width="2" stroke-miterlimit="10"/>
<path id="Vector_2" d="M24.0226 13.3355C21.9123 12.3841 17.9998 12.3999 17.9998 12.3999C17.9998 12.3999 14.0873 12.3825 11.977 13.3355C5.07143 16.4579 2.18311 26.5705 2.18311 26.5705C2.18311 26.5705 11.0926 29.742 17.9998 26.6275C24.907 29.7484 33.8165 26.5705 33.8165 26.5705C33.8165 26.5705 30.9282 16.4579 24.0226 13.3355Z" stroke="#B8945C" stroke-width="2" stroke-miterlimit="10"/>
</g>
</svg>
