<svg width="36" height="36" viewBox="0 0 36 36" fill="none" xmlns="http://www.w3.org/2000/svg">
<g id="Group">
<path id="Vector" d="M17.9998 25.4669C19.7671 25.4669 21.1998 24.0342 21.1998 22.2669C21.1998 20.4996 19.7671 19.0669 17.9998 19.0669C16.2325 19.0669 14.7998 20.4996 14.7998 22.2669C14.7998 24.0342 16.2325 25.4669 17.9998 25.4669Z" stroke="#B8945C" stroke-width="2.21538" stroke-miterlimit="10" stroke-linecap="square"/>
<path id="Vector_2" d="M9.99994 9.46667C12.0618 9.46667 13.7333 7.7952 13.7333 5.73333C13.7333 3.67147 12.0618 2 9.99994 2C7.93807 2 6.2666 3.67147 6.2666 5.73333C6.2666 7.7952 7.93807 9.46667 9.99994 9.46667Z" stroke="#B8945C" stroke-width="2.21538" stroke-miterlimit="10" stroke-linecap="square"/>
<path id="Vector_3" d="M13.7334 33.9998V28.6665H22.2667V33.9998" stroke="#B8945C" stroke-width="2.21538" stroke-miterlimit="10" stroke-linecap="square"/>
<path id="Vector_4" d="M7.3335 24.3999L13.7335 28.6666" stroke="#B8945C" stroke-width="2.21538" stroke-miterlimit="10" stroke-linecap="square"/>
<path id="Vector_5" d="M28.6666 24.3999L22.2666 28.6666" stroke="#B8945C" stroke-width="2.21538" stroke-miterlimit="10" stroke-linecap="square"/>
<path id="Vector_6" d="M2 27.5998V19.0665C2 17.3691 2.67428 15.7413 3.87452 14.541C5.07475 13.3408 6.70261 12.6665 8.4 12.6665H11.6C13.1747 12.6642 14.6945 13.2448 15.8667 14.2964" stroke="#B8945C" stroke-width="2.21538" stroke-miterlimit="10" stroke-linecap="square"/>
<path id="Vector_7" d="M25.9999 9.46667C28.0618 9.46667 29.7333 7.7952 29.7333 5.73333C29.7333 3.67147 28.0618 2 25.9999 2C23.9381 2 22.2666 3.67147 22.2666 5.73333C22.2666 7.7952 23.9381 9.46667 25.9999 9.46667Z" stroke="#B8945C" stroke-width="2.21538" stroke-miterlimit="10" stroke-linecap="square"/>
<path id="Vector_8" d="M34 27.5998V19.0665C34 17.3691 33.3257 15.7413 32.1255 14.541C30.9252 13.3408 29.2974 12.6665 27.6 12.6665H24.4C22.8253 12.6642 21.3054 13.2448 20.1333 14.2964" stroke="#B8945C" stroke-width="2.21538" stroke-miterlimit="10" stroke-linecap="square"/>
</g>
</svg>
