<svg width="16" height="16" viewBox="0 0 16 16" fill="none" xmlns="http://www.w3.org/2000/svg">
<g id="left-arrow 1">
<g id="Group">
<path id="Vector" d="M11 14.9999C10.7348 14.9999 10.4805 14.8945 10.293 14.7069L4.29303 8.70692C4.10556 8.51939 4.00024 8.26508 4.00024 7.99992C4.00024 7.73475 4.10556 7.48045 4.29303 7.29292L10.293 1.29292C10.4816 1.11076 10.7342 1.00997 10.9964 1.01224C11.2586 1.01452 11.5094 1.11969 11.6948 1.3051C11.8803 1.49051 11.9854 1.74132 11.9877 2.00352C11.99 2.26571 11.8892 2.51832 11.707 2.70692L6.41403 7.99992L11.707 13.2929C11.8468 13.4328 11.942 13.6109 11.9806 13.8049C12.0192 13.9988 11.9994 14.1999 11.9237 14.3826C11.848 14.5653 11.7199 14.7214 11.5555 14.8313C11.3911 14.9412 11.1978 14.9999 11 14.9999Z" fill="#07162D"/>
</g>
</g>
</svg>
