<svg width="951" height="218" viewBox="0 0 951 218" fill="none" xmlns="http://www.w3.org/2000/svg">
<path d="M337.638 12.1981L338.916 30.9019H334.85C331.713 20.0978 328.925 17.1935 321.142 17.1935H310.57V77.6032C310.57 83.1795 313.242 85.1545 320.793 85.9677V89.8014H286.639V85.9677C294.306 85.1545 296.978 83.1795 296.978 77.6032V17.1935H286.406C278.623 17.1935 275.834 20.0978 272.582 30.9019H268.516L269.794 12.1981H337.638Z" fill="#07162D"/>
<path d="M361.324 78.8811C361.324 83.7604 364.228 84.9221 369.224 85.9677V89.8014H340.645V85.9677C345.641 84.9221 348.429 83.7604 348.429 78.8811V22.4213C348.429 18.4714 346.918 16.6127 342.504 15.7995L340.645 15.5671V12.1981L358.536 7.43504H361.324V42.2868C367.365 33.2253 373.522 29.5078 380.492 29.5078C391.064 29.5078 398.267 36.4782 398.267 49.141V78.8811C398.267 83.7604 401.171 84.9221 406.166 85.9677V89.8014H378.169V85.9677C382.7 85.0383 385.372 83.7604 385.372 78.8811V50.1865C385.372 42.2868 381.654 38.2208 375.265 38.2208C370.85 38.2208 366.319 40.5442 361.324 46.5852V78.8811Z" fill="#07162D"/>
<path d="M436.002 29.5078C451.918 29.5078 459.353 42.1706 459.353 58.0863H419.854C420.551 72.6078 427.986 81.5531 439.022 81.5531C446.574 81.5531 452.731 77.2547 456.1 71.7946L459.12 73.0725C455.984 83.0633 447.154 91.4278 434.259 91.4278C417.066 91.4278 407.423 77.4871 407.423 62.0361C407.423 41.8221 419.157 29.5078 436.002 29.5078ZM419.97 52.9747H446.109C445.528 42.1706 442.159 34.7356 434.027 34.7356C425.546 34.7356 421.016 41.8221 419.97 52.9747Z" fill="#07162D"/>
<path d="M482.294 12.1981H517.378V16.0318C508.781 16.4965 506.574 18.9361 506.574 24.7447V50.3027L536.43 23.0022C540.613 19.1685 540.148 16.148 530.97 16.0318V12.1981H558.155V16.0318C550.836 16.3803 549.209 18.0067 545.492 21.4919L524.232 41.0089L552.346 80.7399C555.134 84.6898 558.271 85.7353 562.918 85.9677V89.8014H541.89L514.125 50.1865L506.574 57.1569V77.6032C506.574 83.0633 509.478 85.1545 517.378 85.9677V89.8014H482.294V85.9677C490.194 85.1545 493.098 83.0633 493.098 77.6032V24.7447C493.098 18.4714 490.194 16.4965 482.294 16.0318V12.1981Z" fill="#07162D"/>
<path d="M585.51 78.8811C585.51 83.7604 588.414 84.9221 593.409 85.9677V89.8014H564.831V85.9677C569.826 84.9221 572.614 83.7604 572.614 78.8811V45.0749C572.614 40.8927 571.22 38.5693 566.225 37.9884L564.831 37.6399V34.2709L582.721 29.5078H585.51V78.8811ZM570.523 13.3598C570.523 8.59677 574.125 4.99542 579.236 4.99542C584.116 4.99542 587.717 8.59677 587.717 13.3598C587.717 18.2391 584.116 21.7243 579.236 21.7243C574.125 21.7243 570.523 18.2391 570.523 13.3598Z" fill="#07162D"/>
<path d="M617.448 78.8811C617.448 83.7604 620.352 84.9221 625.348 85.9677V89.8014H596.769V85.9677C601.765 84.9221 604.553 83.7604 604.553 78.8811V45.0749C604.553 40.8927 603.159 38.5693 598.163 37.9884L596.769 37.6399V34.2709L614.66 29.5078H617.448V42.2868C623.489 33.2253 629.646 29.5078 636.616 29.5078C647.188 29.5078 654.391 36.4782 654.391 49.141V78.8811C654.391 83.7604 657.295 84.9221 662.291 85.9677V89.8014H634.293V85.9677C638.824 85.0383 641.496 83.7604 641.496 78.8811V50.1865C641.496 42.2868 637.778 38.2208 631.389 38.2208C626.974 38.2208 622.443 40.5442 617.448 46.5852V78.8811Z" fill="#07162D"/>
<path d="M688.968 90.7307C673.4 90.7307 664.455 78.1841 664.455 62.3846C664.455 41.8221 677.583 29.5078 693.498 29.5078C701.63 29.5078 706.277 32.7607 709.182 36.7105L713.596 29.5078H718.94V88.872C718.94 104.323 710.227 114.43 690.826 114.43C676.653 114.43 669.102 109.202 666.198 104.904L679.325 98.0496C681.416 103.394 685.599 108.97 693.382 108.97C701.63 108.97 706.045 103.277 706.045 91.6601V81.2046C703.024 85.7353 696.867 90.7307 688.968 90.7307ZM677.931 58.0863C677.931 70.5167 682.462 82.831 693.614 82.831C698.842 82.831 703.838 80.3914 706.045 77.7194V52.9747C706.045 43.9132 702.327 34.8518 692.337 34.8518C684.088 34.8518 677.931 43.9132 677.931 58.0863Z" fill="#07162D"/>
<path d="M732.086 0C737.778 0 741.612 4.41456 741.612 10.804C741.612 22.3051 734.525 30.2049 723.837 31.3666V27.9976C729.181 26.8358 734.409 22.189 734.525 16.148C728.368 17.6582 723.837 13.5922 723.837 8.4806C723.837 3.71752 727.439 0 732.086 0Z" fill="#07162D"/>
<path d="M761.337 91.4278C751.23 91.4278 741.239 87.2456 736.708 80.6237L746.467 72.6078C749.603 81.0884 755.76 86.6647 762.498 86.6647C768.656 86.6647 773.767 82.831 773.767 77.1385C773.651 72.2593 770.398 69.2388 765.867 67.6124L754.25 63.5464C746.118 60.6421 739.264 56.4598 739.264 47.0499C739.264 36.2458 747.745 29.5078 760.872 29.5078C773.302 29.5078 780.621 34.5032 783.293 38.5693L773.883 45.772C771.328 38.8016 766.216 34.2709 759.826 34.2709C753.437 34.2709 749.487 37.5237 749.487 42.5191C749.487 47.3984 753.553 49.6057 758.316 51.4644L770.05 55.5305C778.066 58.3186 783.99 63.4302 783.99 72.6078C783.99 82.9472 775.394 91.4278 761.337 91.4278Z" fill="#07162D"/>
<path d="M311.35 184.325C322.851 184.325 332.028 177.355 336.327 166.783L339.812 168.177C335.049 182.466 324.129 194.781 307.051 194.781C284.862 194.781 268.714 178.517 268.366 155.979C268.017 132.048 282.887 113.925 306.935 113.925C322.851 113.925 334.119 122.173 336.559 130.77L322.967 137.043C320.643 126.471 314.719 119.385 305.425 119.385C291.484 119.385 282.771 131.118 282.887 150.403C283.004 170.152 294.853 184.325 311.35 184.325Z" fill="#07162D"/>
<path d="M371.064 194.781C353.754 194.781 342.95 182.118 342.95 165.041C342.95 145.988 355.729 132.861 371.761 132.861C389.187 132.861 400.107 145.756 400.107 162.717C400.107 181.886 387.212 194.781 371.064 194.781ZM356.31 160.045C356.31 173.87 361.654 189.437 373.039 189.437C381.636 189.437 386.864 180.259 386.864 167.364C386.864 153.772 381.52 138.205 370.135 138.205C361.538 138.205 356.31 147.266 356.31 160.045Z" fill="#07162D"/>
<path d="M423.919 182.234C423.919 187.113 426.823 188.275 431.819 189.321V193.154H403.24V189.321C408.236 188.275 411.024 187.113 411.024 182.234V148.428C411.024 144.246 409.63 141.922 404.634 141.341L403.24 140.993V137.624L421.131 132.861H423.919V145.64C429.96 136.578 436.117 132.861 443.087 132.861C453.659 132.861 460.862 139.831 460.862 152.494V182.234C460.862 187.113 463.766 188.275 468.762 189.321V193.154H440.764V189.321C445.295 188.391 447.967 187.113 447.967 182.234V153.539C447.967 145.64 444.249 141.574 437.86 141.574C433.445 141.574 428.914 143.897 423.919 149.938V182.234Z" fill="#07162D"/>
<path d="M495.439 194.084C479.872 194.084 470.926 181.537 470.926 165.738C470.926 145.175 484.054 132.861 499.969 132.861C508.101 132.861 512.748 136.114 515.653 140.063L520.067 132.861H525.411V192.225C525.411 207.676 516.698 217.783 497.297 217.783C483.124 217.783 475.573 212.555 472.669 208.257L485.796 201.403C487.887 206.746 492.07 212.323 499.853 212.323C508.101 212.323 512.516 206.63 512.516 195.013V184.558C509.496 189.088 503.338 194.084 495.439 194.084ZM484.402 161.439C484.402 173.87 488.933 186.184 500.086 186.184C505.313 186.184 510.309 183.744 512.516 181.072V156.328C512.516 147.266 508.798 138.205 498.808 138.205C490.559 138.205 484.402 147.266 484.402 161.439Z" fill="#07162D"/>
<path d="M532.918 189.321C539.075 188.043 540.701 186.532 540.701 181.886V148.428C540.701 144.246 539.307 141.922 534.312 141.341L532.918 140.993V137.624L550.808 132.861H553.597V150.403C557.43 138.321 564.052 133.093 571.139 132.628C573.346 132.512 576.134 132.745 577.528 133.325L575.786 147.034C573.578 145.059 569.977 143.897 566.956 144.013C561.148 144.362 556.269 148.428 553.597 154.817V181.886C553.597 186.532 556.152 188.159 564.401 189.321V193.154H532.918V189.321Z" fill="#07162D"/>
<path d="M606.606 132.861C622.521 132.861 629.956 145.524 629.956 161.439H590.458C591.155 175.961 598.59 184.906 609.626 184.906C617.177 184.906 623.335 180.608 626.704 175.148L629.724 176.425C626.587 186.416 617.758 194.781 604.863 194.781C587.67 194.781 578.027 180.84 578.027 165.389C578.027 145.175 589.761 132.861 606.606 132.861ZM590.574 156.328H616.713C616.132 145.524 612.763 138.089 604.631 138.089C596.15 138.089 591.619 145.175 590.574 156.328Z" fill="#07162D"/>
<path d="M659.437 194.084C643.87 194.084 634.925 181.537 634.925 165.738C634.925 145.175 648.052 132.861 663.968 132.861C672.1 132.861 676.747 136.114 679.651 140.063L684.066 132.861H689.41V192.225C689.41 207.676 680.697 217.783 661.296 217.783C647.123 217.783 639.572 212.555 636.667 208.257L649.795 201.403C651.886 206.746 656.068 212.323 663.852 212.323C672.1 212.323 676.514 206.63 676.514 195.013V184.558C673.494 189.088 667.337 194.084 659.437 194.084ZM648.401 161.439C648.401 173.87 652.931 186.184 664.084 186.184C669.312 186.184 674.307 183.744 676.514 181.072V156.328C676.514 147.266 672.797 138.205 662.806 138.205C654.558 138.205 648.401 147.266 648.401 161.439Z" fill="#07162D"/>
<path d="M722.712 132.861C737.234 132.861 745.249 141.69 745.249 155.398V178.052C745.249 183.28 746.411 185.719 752.452 185.719H753.73V189.553L735.142 194.781H732.354V182.583C728.521 191.063 722.015 194.781 713.883 194.781C704.124 194.781 697.619 188.043 697.619 179.097C697.619 167.132 708.888 162.601 725.152 158.883L732.354 157.373V154.701C732.354 144.246 727.591 137.856 719.808 137.856C713.534 137.856 709.933 142.038 709.933 147.499C709.933 149.59 710.514 151.565 711.676 153.888L700.175 157.838C698.78 155.398 698.083 153.191 698.083 150.751C698.083 140.993 708.887 132.861 722.712 132.861ZM711.095 177.471C711.095 182.931 714.464 186.997 719.808 186.997C725.035 186.997 729.566 183.977 732.354 178.4V162.02L726.43 163.414C715.161 166.318 711.095 170.268 711.095 177.471Z" fill="#07162D"/>
<path d="M751.852 139.483V134.487H762.192V122.986L772.299 117.758H775.087V134.487H790.305V139.483H775.087V176.89C775.087 184.325 778.688 187.578 783.684 187.578C786.704 187.578 788.911 186.416 791.002 184.79L792.396 187.346C789.26 190.134 784.032 194.781 777.41 194.781C767.768 194.781 762.192 188.972 762.192 177.239V139.483H751.852Z" fill="#07162D"/>
<path d="M814.599 182.234C814.599 187.113 817.503 188.275 822.499 189.321V193.154H793.92V189.321C798.916 188.275 801.704 187.113 801.704 182.234V148.428C801.704 144.246 800.31 141.922 795.314 141.341L793.92 140.993V137.624L811.811 132.861H814.599V182.234ZM799.613 116.713C799.613 111.95 803.214 108.348 808.326 108.348C813.205 108.348 816.806 111.95 816.806 116.713C816.806 121.592 813.205 125.077 808.326 125.077C803.214 125.077 799.613 121.592 799.613 116.713Z" fill="#07162D"/>
<path d="M853.303 194.781C835.993 194.781 825.189 182.118 825.189 165.041C825.189 145.988 837.968 132.861 854 132.861C871.425 132.861 882.346 145.756 882.346 162.717C882.346 181.886 869.451 194.781 853.303 194.781ZM838.549 160.045C838.549 173.87 843.893 189.437 855.278 189.437C863.874 189.437 869.102 180.259 869.102 167.364C869.102 153.772 863.758 138.205 852.373 138.205C843.776 138.205 838.549 147.266 838.549 160.045Z" fill="#07162D"/>
<path d="M906.157 182.234C906.157 187.113 909.062 188.275 914.057 189.321V193.154H885.479V189.321C890.474 188.275 893.262 187.113 893.262 182.234V148.428C893.262 144.246 891.868 141.922 886.873 141.341L885.479 140.993V137.624L903.369 132.861H906.157V145.64C912.198 136.578 918.356 132.861 925.326 132.861C935.898 132.861 943.1 139.831 943.1 152.494V182.234C943.1 187.113 946.005 188.275 951 189.321V193.154H923.002V189.321C927.533 188.391 930.205 187.113 930.205 182.234V153.539C930.205 145.64 926.488 141.574 920.098 141.574C915.684 141.574 911.153 143.897 906.157 149.938V182.234Z" fill="#07162D"/>
<path fill-rule="evenodd" clip-rule="evenodd" d="M0 74.3857L17.441 71.7101C17.5177 72.1947 17.6118 72.7907 17.7141 73.4406C17.975 75.0988 18.289 77.1053 18.5025 78.5103C19.8064 87.6394 24.5239 95.9366 31.7058 101.732C38.8892 107.529 48.0048 110.393 57.2174 109.747C66.4301 109.102 75.0558 104.994 81.3582 98.2524C87.6607 91.5104 91.1719 82.6342 91.185 73.4106V45.7358H71.0336V28.1258H91.185V8H108.817V28.1258H128.969V45.7358H108.817V73.4116C108.837 82.4648 112.227 91.1872 118.329 97.8829C124.43 104.579 132.806 108.769 141.829 109.64C150.851 110.511 159.876 107.999 167.148 102.594C174.42 97.1892 179.419 89.2757 181.175 80.3937C181.257 79.9741 181.642 77.4606 181.997 75.114C182.176 73.927 182.351 72.7641 182.481 71.8981L182.509 71.7117L200 74.395L179.538 208H20.4897L0 74.3857ZM101.083 104.461L100.051 102.989L99.0197 104.461C91.1501 115.691 79.2989 123.512 65.869 126.338C52.4392 129.164 38.4359 126.783 26.6986 119.679L24.3968 118.286L30.0009 155.17H169.973L175.676 118.31L173.368 119.703C161.63 126.792 147.634 129.16 134.213 126.33C120.793 123.5 108.95 115.683 101.083 104.461ZM167.274 172.78H32.7524L35.456 190.39H164.585L167.274 172.78Z" fill="#B8945C"/>
</svg>
