<svg width="192" height="46" viewBox="0 0 192 46" fill="none" xmlns="http://www.w3.org/2000/svg">
<path d="M68.1663 3.54474L68.4243 7.3209H67.6034C66.9701 5.13964 66.4072 4.55328 64.8358 4.55328H62.7014V16.7496C62.7014 17.8754 63.2409 18.2741 64.7654 18.4383V19.2123H57.8698V18.4383C59.4178 18.2741 59.9573 17.8754 59.9573 16.7496V4.55328H57.8229C56.2515 4.55328 55.6886 5.13964 55.0318 7.3209H54.2109L54.4689 3.54474H68.1663Z" fill="#07162D"/>
<path d="M72.9482 17.0076C72.9482 17.9926 73.5346 18.2272 74.5431 18.4383V19.2123H68.7734V18.4383C69.7819 18.2272 70.3448 17.9926 70.3448 17.0076V5.60873C70.3448 4.81128 70.0399 4.43601 69.1486 4.27183L68.7734 4.22492V3.54474L72.3853 2.58311H72.9482V9.61943C74.1679 7.78999 75.411 7.03944 76.8182 7.03944C78.9526 7.03944 80.4067 8.44671 80.4067 11.0032V17.0076C80.4067 17.9926 80.9931 18.2272 82.0016 18.4383V19.2123H76.3491V18.4383C77.2639 18.2506 77.8033 17.9926 77.8033 17.0076V11.2143C77.8033 9.61943 77.0528 8.79852 75.7628 8.79852C74.8715 8.79852 73.9568 9.26761 72.9482 10.4872V17.0076Z" fill="#07162D"/>
<path d="M88.0252 7.03944C91.2385 7.03944 92.7395 9.59597 92.7395 12.8092H84.765C84.9058 15.741 86.4069 17.547 88.635 17.547C90.1596 17.547 91.4026 16.6792 92.0828 15.5768L92.6926 15.8348C92.0594 17.8519 90.2768 19.5406 87.6734 19.5406C84.2021 19.5406 82.2554 16.7261 82.2554 13.6067C82.2554 9.52561 84.6243 7.03944 88.0252 7.03944ZM84.7885 11.7772H90.0657C89.9485 9.59597 89.2683 8.09489 87.6265 8.09489C85.9143 8.09489 84.9996 9.52561 84.7885 11.7772Z" fill="#07162D"/>
<path d="M97.3712 3.54474H104.454V4.31874C102.719 4.41255 102.273 4.9051 102.273 6.07782V11.2378L108.301 5.726C109.145 4.95201 109.052 4.34219 107.199 4.31874V3.54474H112.687V4.31874C111.209 4.3891 110.881 4.71746 110.13 5.42109L105.838 9.36143L111.514 17.3828C112.077 18.1803 112.71 18.3914 113.649 18.4383V19.2123H109.403L103.798 11.2143L102.273 12.6216V16.7496C102.273 17.8519 102.86 18.2741 104.454 18.4383V19.2123H97.3712V18.4383C98.9661 18.2741 99.5525 17.8519 99.5525 16.7496V6.07782C99.5525 4.81128 98.9661 4.41255 97.3712 4.31874V3.54474Z" fill="#07162D"/>
<path d="M118.21 17.0076C118.21 17.9926 118.796 18.2272 119.805 18.4383V19.2123H114.035V18.4383C115.043 18.2272 115.606 17.9926 115.606 17.0076V10.1823C115.606 9.33798 115.325 8.86889 114.316 8.75162L114.035 8.68125V8.00108L117.647 7.03944H118.21V17.0076ZM115.184 3.77929C115.184 2.81766 115.911 2.09057 116.943 2.09057C117.928 2.09057 118.655 2.81766 118.655 3.77929C118.655 4.76437 117.928 5.468 116.943 5.468C115.911 5.468 115.184 4.76437 115.184 3.77929Z" fill="#07162D"/>
<path d="M124.658 17.0076C124.658 17.9926 125.244 18.2272 126.253 18.4383V19.2123H120.483V18.4383C121.492 18.2272 122.054 17.9926 122.054 17.0076V10.1823C122.054 9.33798 121.773 8.86889 120.764 8.75162L120.483 8.68125V8.00108L124.095 7.03944H124.658V9.61943C125.877 7.78999 127.121 7.03944 128.528 7.03944C130.662 7.03944 132.116 8.44671 132.116 11.0032V17.0076C132.116 17.9926 132.703 18.2272 133.711 18.4383V19.2123H128.059V18.4383C128.973 18.2506 129.513 17.9926 129.513 17.0076V11.2143C129.513 9.61943 128.762 8.79852 127.472 8.79852C126.581 8.79852 125.666 9.26761 124.658 10.4872V17.0076Z" fill="#07162D"/>
<path d="M139.097 19.3999C135.954 19.3999 134.148 16.8668 134.148 13.677C134.148 9.52561 136.799 7.03944 140.012 7.03944C141.654 7.03944 142.592 7.69617 143.178 8.49362L144.069 7.03944H145.148V19.0246C145.148 22.1441 143.389 24.1846 139.472 24.1846C136.611 24.1846 135.086 23.1292 134.5 22.2613L137.15 20.8775C137.573 21.9564 138.417 23.0822 139.988 23.0822C141.654 23.0822 142.545 21.933 142.545 19.5875V17.4766C141.935 18.3914 140.692 19.3999 139.097 19.3999ZM136.869 12.8092C136.869 15.3188 137.784 17.805 140.035 17.805C141.091 17.805 142.099 17.3125 142.545 16.773V11.7772C142.545 9.94779 141.794 8.11835 139.777 8.11835C138.112 8.11835 136.869 9.94779 136.869 12.8092Z" fill="#07162D"/>
<path d="M147.802 1.08203C148.952 1.08203 149.726 1.9733 149.726 3.26329C149.726 5.58527 148.295 7.18017 146.137 7.41472V6.73454C147.216 6.49999 148.271 5.56182 148.295 4.34219C147.052 4.6471 146.137 3.8262 146.137 2.7942C146.137 1.83257 146.864 1.08203 147.802 1.08203Z" fill="#07162D"/>
<path d="M153.708 19.5406C151.667 19.5406 149.65 18.6963 148.736 17.3594L150.706 15.741C151.339 17.4532 152.582 18.579 153.942 18.579C155.186 18.579 156.218 17.805 156.218 16.6557C156.194 15.6707 155.537 15.0608 154.623 14.7325L152.277 13.9116C150.635 13.3252 149.252 12.4809 149.252 10.5811C149.252 8.3998 150.964 7.03944 153.614 7.03944C156.124 7.03944 157.601 8.04798 158.141 8.86889L156.241 10.3231C155.725 8.9158 154.693 8.00108 153.403 8.00108C152.113 8.00108 151.316 8.6578 151.316 9.66634C151.316 10.6514 152.136 11.0971 153.098 11.4723L155.467 12.2932C157.085 12.8561 158.282 13.8881 158.282 15.741C158.282 17.8285 156.546 19.5406 153.708 19.5406Z" fill="#07162D"/>
<path d="M62.859 38.2952C65.181 38.2952 67.0339 36.888 67.9017 34.7536L68.6053 35.0351C67.6437 37.92 65.439 40.4061 61.9912 40.4061C57.5114 40.4061 54.2513 37.1225 54.1809 32.5724C54.1105 27.7407 57.1127 24.0819 61.9678 24.0819C65.181 24.0819 67.4561 25.7471 67.9486 27.4828L65.2045 28.7493C64.7354 26.6149 63.5392 25.1842 61.6628 25.1842C58.8483 25.1842 57.0892 27.5531 57.1127 31.4465C57.1361 35.4338 59.5285 38.2952 62.859 38.2952Z" fill="#07162D"/>
<path d="M74.9149 40.4061C71.4202 40.4061 69.239 37.8496 69.239 34.4018C69.239 30.5553 71.819 27.9049 75.0557 27.9049C78.5738 27.9049 80.7785 30.5084 80.7785 33.9327C80.7785 37.8027 78.1751 40.4061 74.9149 40.4061ZM71.9362 33.3933C71.9362 36.1843 73.0151 39.3272 75.3137 39.3272C77.0493 39.3272 78.1047 37.4743 78.1047 34.8709C78.1047 32.1267 77.0258 28.9838 74.7273 28.9838C72.9917 28.9838 71.9362 30.8133 71.9362 33.3933Z" fill="#07162D"/>
<path d="M85.586 37.873C85.586 38.8581 86.1723 39.0927 87.1808 39.3038V40.0778H81.4111V39.3038C82.4196 39.0927 82.9825 38.8581 82.9825 37.873V31.0478C82.9825 30.2035 82.7011 29.7344 81.6925 29.6171L81.4111 29.5467V28.8666L85.023 27.9049H85.586V30.4849C86.8056 28.6555 88.0487 27.9049 89.4559 27.9049C91.5903 27.9049 93.0445 29.3122 93.0445 31.8687V37.873C93.0445 38.8581 93.6308 39.0927 94.6394 39.3038V40.0778H88.9868V39.3038C89.9016 39.1161 90.441 38.8581 90.441 37.873V32.0798C90.441 30.4849 89.6905 29.664 88.4005 29.664C87.5092 29.664 86.5945 30.1331 85.586 31.3527V37.873Z" fill="#07162D"/>
<path d="M100.025 40.2654C96.8824 40.2654 95.0764 37.7323 95.0764 34.5425C95.0764 30.3911 97.7267 27.9049 100.94 27.9049C102.582 27.9049 103.52 28.5617 104.106 29.3591L104.998 27.9049H106.076V39.8901C106.076 43.0096 104.317 45.0501 100.401 45.0501C97.5391 45.0501 96.0145 43.9946 95.4282 43.1268L98.0785 41.743C98.5007 42.8219 99.3451 43.9477 100.917 43.9477C102.582 43.9477 103.473 42.7985 103.473 40.453V38.3421C102.863 39.2569 101.62 40.2654 100.025 40.2654ZM97.7971 33.6747C97.7971 36.1843 98.7118 38.6705 100.963 38.6705C102.019 38.6705 103.027 38.178 103.473 37.6385V32.6427C103.473 30.8133 102.723 28.9838 100.705 28.9838C99.0402 28.9838 97.7971 30.8133 97.7971 33.6747Z" fill="#07162D"/>
<path d="M107.592 39.3038C108.835 39.0458 109.163 38.7409 109.163 37.8027V31.0478C109.163 30.2035 108.882 29.7344 107.873 29.6171L107.592 29.5467V28.8666L111.204 27.9049H111.767V31.4465C112.541 29.0073 113.878 27.9518 115.309 27.858C115.754 27.8346 116.317 27.8815 116.599 27.9987L116.247 30.7664C115.801 30.3676 115.074 30.1331 114.464 30.1565C113.291 30.2269 112.306 31.0478 111.767 32.3378V37.8027C111.767 38.7409 112.283 39.0692 113.948 39.3038V40.0778H107.592V39.3038Z" fill="#07162D"/>
<path d="M122.469 27.9049C125.682 27.9049 127.183 30.4615 127.183 33.6747H119.209C119.35 36.6065 120.851 38.4125 123.079 38.4125C124.603 38.4125 125.847 37.5447 126.527 36.4423L127.136 36.7003C126.503 38.7174 124.721 40.4061 122.117 40.4061C118.646 40.4061 116.699 37.5916 116.699 34.4722C116.699 30.3911 119.068 27.9049 122.469 27.9049ZM119.232 32.6427H124.51C124.392 30.4615 123.712 28.9604 122.07 28.9604C120.358 28.9604 119.443 30.3911 119.232 32.6427Z" fill="#07162D"/>
<path d="M133.135 40.2654C129.992 40.2654 128.186 37.7323 128.186 34.5425C128.186 30.3911 130.837 27.9049 134.05 27.9049C135.692 27.9049 136.63 28.5617 137.216 29.3591L138.108 27.9049H139.187V39.8901C139.187 43.0096 137.427 45.0501 133.511 45.0501C130.649 45.0501 129.125 43.9946 128.538 43.1268L131.189 41.743C131.611 42.8219 132.455 43.9477 134.027 43.9477C135.692 43.9477 136.583 42.7985 136.583 40.453V38.3421C135.973 39.2569 134.73 40.2654 133.135 40.2654ZM130.907 33.6747C130.907 36.1843 131.822 38.6705 134.074 38.6705C135.129 38.6705 136.138 38.178 136.583 37.6385V32.6427C136.583 30.8133 135.833 28.9838 133.816 28.9838C132.15 28.9838 130.907 30.8133 130.907 33.6747Z" fill="#07162D"/>
<path d="M145.91 27.9049C148.842 27.9049 150.46 29.6875 150.46 32.4551V37.0287C150.46 38.0841 150.695 38.5767 151.914 38.5767H152.172V39.3507L148.42 40.4061H147.857V37.9434C147.083 39.6556 145.769 40.4061 144.128 40.4061C142.157 40.4061 140.844 39.0458 140.844 37.2398C140.844 34.824 143.119 33.9093 146.403 33.1587L147.857 32.8538V32.3144C147.857 30.2035 146.895 28.9135 145.324 28.9135C144.057 28.9135 143.33 29.7578 143.33 30.8602C143.33 31.2824 143.447 31.6811 143.682 32.1502L141.36 32.9476C141.078 32.4551 140.938 32.0094 140.938 31.5169C140.938 29.5467 143.119 27.9049 145.91 27.9049ZM143.565 36.9114C143.565 38.0138 144.245 38.8347 145.324 38.8347C146.379 38.8347 147.294 38.2249 147.857 37.099V33.792L146.661 34.0734C144.386 34.6598 143.565 35.4572 143.565 36.9114Z" fill="#07162D"/>
<path d="M151.793 29.2418V28.2333H153.881V25.9113L155.921 24.8559H156.484V28.2333H159.557V29.2418H156.484V36.7941C156.484 38.2952 157.211 38.9519 158.22 38.9519C158.83 38.9519 159.275 38.7174 159.697 38.389L159.979 38.905C159.346 39.4679 158.29 40.4061 156.953 40.4061C155.007 40.4061 153.881 39.2334 153.881 36.8645V29.2418H151.793Z" fill="#07162D"/>
<path d="M164.461 37.873C164.461 38.8581 165.048 39.0927 166.056 39.3038V40.0778H160.287V39.3038C161.295 39.0927 161.858 38.8581 161.858 37.873V31.0478C161.858 30.2035 161.577 29.7344 160.568 29.6171L160.287 29.5467V28.8666L163.898 27.9049H164.461V37.873ZM161.436 24.6448C161.436 23.6831 162.163 22.9561 163.195 22.9561C164.18 22.9561 164.907 23.6831 164.907 24.6448C164.907 25.6299 164.18 26.3335 163.195 26.3335C162.163 26.3335 161.436 25.6299 161.436 24.6448Z" fill="#07162D"/>
<path d="M172.275 40.4061C168.781 40.4061 166.599 37.8496 166.599 34.4018C166.599 30.5553 169.179 27.9049 172.416 27.9049C175.934 27.9049 178.139 30.5084 178.139 33.9327C178.139 37.8027 175.536 40.4061 172.275 40.4061ZM169.297 33.3933C169.297 36.1843 170.376 39.3272 172.674 39.3272C174.41 39.3272 175.465 37.4743 175.465 34.8709C175.465 32.1267 174.386 28.9838 172.088 28.9838C170.352 28.9838 169.297 30.8133 169.297 33.3933Z" fill="#07162D"/>
<path d="M182.946 37.873C182.946 38.8581 183.533 39.0927 184.541 39.3038V40.0778H178.772V39.3038C179.78 39.0927 180.343 38.8581 180.343 37.873V31.0478C180.343 30.2035 180.062 29.7344 179.053 29.6171L178.772 29.5467V28.8666L182.383 27.9049H182.946V30.4849C184.166 28.6555 185.409 27.9049 186.816 27.9049C188.951 27.9049 190.405 29.3122 190.405 31.8687V37.873C190.405 38.8581 190.991 39.0927 192 39.3038V40.0778H186.347V39.3038C187.262 39.1161 187.801 38.8581 187.801 37.873V32.0798C187.801 30.4849 187.051 29.664 185.761 29.664C184.87 29.664 183.955 30.1331 182.946 31.3527V37.873Z" fill="#07162D"/>
<path fill-rule="evenodd" clip-rule="evenodd" d="M18.625 0.268555H22.0112V4.33193H25.3968V7.71817H22.0112V12.1201C22.0112 16.9372 25.5581 20.5857 29.6303 20.5857C33.3874 20.5857 36.6972 17.4801 37.187 13.2163C36.4427 13.9833 35.5965 14.6324 34.6671 15.1341L33.0586 12.1543C35.4338 10.8722 37.239 7.94069 37.249 4.362V4.33203H37.2491H40.6353V4.3662V12.1201H40.6356L40.6353 12.2075V39.2103H40.6349V40.9038H0V39.2102V37.5176V32.4379V29.0517V4.33193H3.38624V4.33203H3.38668C3.38668 7.92433 5.19535 10.8686 7.57715 12.1543L5.96868 15.1341C5.03921 14.6324 4.19301 13.9833 3.44874 13.2163C3.9385 17.4801 7.24837 20.5857 11.0055 20.5857C15.0777 20.5857 18.6245 16.9372 18.6245 12.1201H18.625V7.71817H15.2381V4.33193H18.625V0.268555ZM20.3179 18.4331C18.3916 21.7305 14.9911 23.972 11.0055 23.972C8.00908 23.972 5.3434 22.7051 3.38624 20.6751V29.0517H37.249V20.6756C35.2919 22.7053 32.6264 23.972 29.6303 23.972C25.6446 23.972 22.2441 21.7305 20.3179 18.4331ZM3.38624 32.4379V37.5176H37.249V32.4379H3.38624Z" fill="#B8945C"/>
</svg>
