<svg width="24" height="24" viewBox="0 0 24 24" fill="none" xmlns="http://www.w3.org/2000/svg">
<g id="phone-music 1">
<g id="Group">
<path id="Vector" d="M18 23H6C5.46957 23 4.96086 22.7893 4.58579 22.4142C4.21071 22.0391 4 21.5304 4 21V3C4 2.46957 4.21071 1.96086 4.58579 1.58579C4.96086 1.21071 5.46957 1 6 1H18C18.5304 1 19.0391 1.21071 19.4142 1.58579C19.7893 1.96086 20 2.46957 20 3V21C20 21.5304 19.7893 22.0391 19.4142 22.4142C19.0391 22.7893 18.5304 23 18 23Z" stroke="#B8945C" stroke-width="2" stroke-miterlimit="10" stroke-linecap="square"/>
<path id="Vector_2" d="M12 16V7L16 9" stroke="#B8945C" stroke-width="2" stroke-miterlimit="10"/>
<path id="Vector_3" d="M10 18C11.1046 18 12 17.1046 12 16C12 14.8954 11.1046 14 10 14C8.89543 14 8 14.8954 8 16C8 17.1046 8.89543 18 10 18Z" stroke="#B8945C" stroke-width="2" stroke-miterlimit="10"/>
</g>
</g>
</svg>
