<svg width="16" height="16" viewBox="0 0 16 16" fill="none" xmlns="http://www.w3.org/2000/svg">
<g id="right-arrow 1">
<g id="Group">
<path id="Vector" d="M5.00003 14.9999C4.80228 14.9999 4.60898 14.9412 4.44457 14.8313C4.28016 14.7214 4.15202 14.5653 4.07635 14.3826C4.00068 14.1999 3.98088 13.9988 4.01945 13.8049C4.05802 13.6109 4.15322 13.4328 4.29303 13.2929L9.58603 7.99992L4.29303 2.70692C4.11087 2.51832 4.01008 2.26571 4.01236 2.00352C4.01464 1.74132 4.1198 1.49051 4.30521 1.3051C4.49062 1.11969 4.74143 1.01452 5.00363 1.01224C5.26583 1.00997 5.51843 1.11076 5.70703 1.29292L11.707 7.29292C11.8945 7.48045 11.9998 7.73475 11.9998 7.99992C11.9998 8.26508 11.8945 8.51939 11.707 8.70692L5.70703 14.7069C5.51954 14.8945 5.26523 14.9999 5.00003 14.9999Z" fill="#07162D"/>
</g>
</g>
</svg>
