<svg width="12" height="16" viewBox="0 0 12 16" fill="none" xmlns="http://www.w3.org/2000/svg">
<g id="Group">
<path id="Vector" d="M11.7074 5.29279L6.70741 0.292786C6.51988 0.105315 6.26557 0 6.00041 0C5.73524 0 5.48094 0.105315 5.29341 0.292786L0.293407 5.29279C0.111249 5.48139 0.0104547 5.73399 0.0127331 5.99619C0.0150115 6.25838 0.12018 6.5092 0.305589 6.6946C0.490997 6.88001 0.741809 6.98518 1.00401 6.98746C1.2662 6.98974 1.5188 6.88894 1.70741 6.70679L5.00041 3.41379V14.9998C5.00041 15.265 5.10576 15.5194 5.2933 15.7069C5.48084 15.8944 5.73519 15.9998 6.00041 15.9998C6.26562 15.9998 6.51998 15.8944 6.70751 15.7069C6.89505 15.5194 7.00041 15.265 7.00041 14.9998V3.41379L10.2934 6.70679C10.482 6.88894 10.7346 6.98974 10.9968 6.98746C11.259 6.98518 11.5098 6.88001 11.6952 6.6946C11.8806 6.5092 11.9858 6.25838 11.9881 5.99619C11.9904 5.73399 11.8896 5.48139 11.7074 5.29279Z" fill="#07162D"/>
</g>
</svg>
