<svg width="16" height="16" viewBox="0 0 16 16" fill="none" xmlns="http://www.w3.org/2000/svg">
<g id="search 1" clip-path="url(#clip0_201_1199)">
<g id="Group">
<path id="Vector" d="M7 14C3.14 14 0 10.86 0 7C0 3.14 3.14 0 7 0C10.86 0 14 3.14 14 7C14 10.86 10.86 14 7 14ZM7 2C4.243 2 2 4.243 2 7C2 9.757 4.243 12 7 12C9.757 12 12 9.757 12 7C12 4.243 9.757 2 7 2Z" fill="#07162D"/>
<path id="Vector_2" d="M15.7069 14.2929L13.3139 11.8999C12.9029 12.4289 12.4289 12.9029 11.8999 13.3139L14.2929 15.7069C14.4879 15.9019 14.7439 15.9999 14.9999 15.9999C15.2559 15.9999 15.5119 15.9019 15.7069 15.7069C16.0979 15.3159 16.0979 14.6839 15.7069 14.2929Z" fill="#07162D"/>
</g>
</g>
<defs>
<clipPath id="clip0_201_1199">
<rect width="16" height="16" fill="white"/>
</clipPath>
</defs>
</svg>
