<svg width="16" height="16" viewBox="0 0 16 16" fill="none" xmlns="http://www.w3.org/2000/svg">
<g id="share-26 1" clip-path="url(#clip0_208_218)">
<g id="Group">
<path id="Vector" d="M14 11C13.7348 11 13.4804 11.1054 13.2929 11.2929C13.1054 11.4804 13 11.7348 13 12V14H2V3H4C4.26522 3 4.51957 2.89464 4.70711 2.70711C4.89464 2.51957 5 2.26522 5 2C5 1.73478 4.89464 1.48043 4.70711 1.29289C4.51957 1.10536 4.26522 1 4 1H2C1.46957 1 0.960859 1.21071 0.585786 1.58579C0.210714 1.96086 0 2.46957 0 3L0 14C0 14.5304 0.210714 15.0391 0.585786 15.4142C0.960859 15.7893 1.46957 16 2 16H13C13.5304 16 14.0391 15.7893 14.4142 15.4142C14.7893 15.0391 15 14.5304 15 14V12C15 11.7348 14.8946 11.4804 14.7071 11.2929C14.5196 11.1054 14.2652 11 14 11Z" fill="#07162D"/>
<path id="Vector_2" d="M15.0001 0H9.00008C8.73486 0 8.48051 0.105357 8.29297 0.292893C8.10544 0.48043 8.00008 0.734784 8.00008 1C8.00008 1.26522 8.10544 1.51957 8.29297 1.70711C8.48051 1.89464 8.73486 2 9.00008 2H12.5861L7.29308 7.293C7.19757 7.38525 7.12139 7.49559 7.06898 7.6176C7.01657 7.7396 6.98898 7.87082 6.98783 8.0036C6.98668 8.13638 7.01198 8.26806 7.06226 8.39095C7.11254 8.51385 7.18679 8.6255 7.28069 8.71939C7.37458 8.81329 7.48623 8.88754 7.60913 8.93782C7.73202 8.9881 7.8637 9.0134 7.99648 9.01225C8.12926 9.0111 8.26048 8.98351 8.38249 8.9311C8.50449 8.87869 8.61483 8.80251 8.70708 8.707L14.0001 3.414V7C14.0001 7.26522 14.1054 7.51957 14.293 7.70711C14.4805 7.89464 14.7349 8 15.0001 8C15.2653 8 15.5197 7.89464 15.7072 7.70711C15.8947 7.51957 16.0001 7.26522 16.0001 7V1C16.0001 0.734784 15.8947 0.48043 15.7072 0.292893C15.5197 0.105357 15.2653 0 15.0001 0Z" fill="#07162D"/>
</g>
</g>
<defs>
<clipPath id="clip0_208_218">
<rect width="16" height="16" fill="white"/>
</clipPath>
</defs>
</svg>
